<svg xmlns="http://www.w3.org/2000/svg" id="Grupo_725" data-name="Grupo 725" width="248.887" height="70.258" viewBox="0 0 248.887 70.258"><path id="Trazado_738" data-name="Trazado 738" d="M56.207,82.835a21.081,21.081,0,0,1-21.079,21.079A35.135,35.135,0,0,1,17.976,38.119,23.881,23.881,0,1,0,52.588,71.026a20.988,20.988,0,0,1,3.619,11.808" transform="translate(0 -33.655)" fill="#006271"></path><path id="Trazado_739" data-name="Trazado 739" d="M119.994,21.078A21.081,21.081,0,0,1,141.073,0a35.135,35.135,0,0,1,17.153,65.794,23.881,23.881,0,1,0-34.613-32.907,20.987,20.987,0,0,1-3.619-11.808" transform="translate(-105.942 0.001)" fill="#97c8c8"></path><path id="Trazado_740" data-name="Trazado 740" d="M742.848,120l11.943,34.81a20.145,20.145,0,0,0,1.929,4.074,16.657,16.657,0,0,0,2.7,3.271h-13.98A14.878,14.878,0,0,0,747,159.99a3.3,3.3,0,0,0,.478-1.574,12.79,12.79,0,0,0-.648-2.777l-.062-.185-2.9-9.35H732.232l-3.148,9.042q-.525,1.42-.71,2.145a5.161,5.161,0,0,0-.185,1.25,3.664,3.664,0,0,0,.432,1.636,11.406,11.406,0,0,0,1.327,1.975h-9.968a23.482,23.482,0,0,0,4.753-7.931q.215-.525.308-.741l12.56-31.909Zm-4.6,8.209-5.123,14.875h9.783Z" transform="translate(-635.669 -105.943)" fill="#006271"></path><path id="Trazado_741" data-name="Trazado 741" d="M1073,224.619v5.308a31.333,31.333,0,0,1,4.876-4.074,6.35,6.35,0,0,1,3.24-.987,6.943,6.943,0,0,1,1.389.2,5.219,5.219,0,0,1,1.327.54v8.055a17.323,17.323,0,0,0-3.981-2.638,8.987,8.987,0,0,0-3.549-.695q-.71,0-2.592.185-.463.032-.71.062v14.843a18.754,18.754,0,0,0,.57,5.107,17.5,17.5,0,0,0,1.775,4h-12.251a17.275,17.275,0,0,0,1.79-4.089,19.023,19.023,0,0,0,.556-5.015v-9.6a17.069,17.069,0,0,0-.571-4.521,18.589,18.589,0,0,0-1.774-4.212Z" transform="translate(-938.603 -198.315)" fill="#006271"></path><path id="Trazado_742" data-name="Trazado 742" d="M1259.313,120V136.5a25.612,25.612,0,0,1,5.153-3.009,11.766,11.766,0,0,1,4.505-1,9.2,9.2,0,0,1,7.592,3.966,16.142,16.142,0,0,1,3.024,10.075,16.631,16.631,0,0,1-4,11.511,13.169,13.169,0,0,1-10.292,4.475,9.714,9.714,0,0,1-3.147-.525,9.542,9.542,0,0,1-2.839-1.543l-7.591,2.191V131.2a14.75,14.75,0,0,0-.649-4.6,15.583,15.583,0,0,0-2.191-4.135Zm0,38.421a17.047,17.047,0,0,0,2.145.571,10.014,10.014,0,0,0,1.9.2,7.374,7.374,0,0,0,6.172-3.1,13.409,13.409,0,0,0,2.345-8.286q0-5.154-2.345-8.1a7.76,7.76,0,0,0-6.419-2.947,14.239,14.239,0,0,0-1.527.092q-.849.093-2.268.339Z" transform="translate(-1102.634 -105.943)" fill="#006271"></path><path id="Trazado_743" data-name="Trazado 743" d="M1570.91,240.52h-18.578v.493q0,5.8,3.055,8.811t8.888,3.009q1.3,0,2.978-.169t3.873-.51a19.646,19.646,0,0,1-5.817,3.781,16.942,16.942,0,0,1-6.527,1.281,13.668,13.668,0,0,1-10.353-4.043q-3.872-4.043-3.873-10.832a15.867,15.867,0,0,1,4.058-11.248,13.655,13.655,0,0,1,10.477-4.367,10.915,10.915,0,0,1,8.656,3.611q3.163,3.61,3.163,9.875Zm-8.085-2.654a13.256,13.256,0,0,0-1.25-6.357,3.878,3.878,0,0,0-3.533-2.253,4.554,4.554,0,0,0-4.166,2.577q-1.451,2.577-1.512,7.545Z" transform="translate(-1363.684 -200.176)" fill="#006271"></path><path id="Trazado_744" data-name="Trazado 744" d="M1939.839,157.681v8.486h9.474v3.086h-9.474V185.64q0,3.641,1.312,4.907t4.953,1.265q1.141,0,2.268-.062t2.268-.185a12.877,12.877,0,0,1-4.8,3.209,16.5,16.5,0,0,1-6.126,1.142q-4.074,0-5.74-1.821t-1.666-6.573V169.253h-4.845a45.382,45.382,0,0,0,5.817-4.66,90.685,90.685,0,0,0,6.558-6.912" transform="translate(-1701.752 -139.216)" fill="#006271"></path><path id="Trazado_745" data-name="Trazado 745" d="M1816.967,224.619v20.8a19.219,19.219,0,0,0,.556,5.107,17.02,17.02,0,0,0,1.759,4H1807.03a17.28,17.28,0,0,0,1.79-4.089,19.024,19.024,0,0,0,.555-5.015v-9.6a16.388,16.388,0,0,0-2.345-8.734Z" transform="translate(-1595.421 -198.315)" fill="#006271"></path><path id="Trazado_746" data-name="Trazado 746" d="M1823.519,120a5.617,5.617,0,0,1,3.471.879,3.215,3.215,0,0,1,1.126,2.7,3.17,3.17,0,0,1-1.126,2.685,5.692,5.692,0,0,1-3.471.864,5.82,5.82,0,0,1-3.518-.849,3.837,3.837,0,0,1,.016-5.415,5.753,5.753,0,0,1,3.5-.864" transform="translate(-1605.893 -105.943)" fill="#006271"></path><path id="Trazado_747" data-name="Trazado 747" d="M731.311,564.333h1.536c.926,0,1.535.493,1.535,1.3v.012c0,.885-.738,1.342-1.612,1.342h-1v1.448h-.463Zm1.477,2.233c.68,0,1.125-.363,1.125-.9v-.012c0-.586-.44-.891-1.1-.891h-1.038v1.805Z" transform="translate(-645.672 -498.248)" fill="#006271"></path><path id="Trazado_748" data-name="Trazado 748" d="M775.206,567.4l.287-.34a1.929,1.929,0,0,0,1.406.58c.557,0,.914-.293.914-.7v-.012c0-.381-.205-.592-1.067-.78-.943-.205-1.377-.51-1.377-1.184v-.012a1.215,1.215,0,0,1,1.348-1.119,2.142,2.142,0,0,1,1.442.5l-.27.357a1.8,1.8,0,0,0-1.184-.445c-.539,0-.873.287-.873.662v.012c0,.387.205.61,1.113.8.914.2,1.337.533,1.337,1.16v.012c0,.7-.586,1.161-1.4,1.161a2.366,2.366,0,0,1-1.676-.657" transform="translate(-684.427 -497.807)" fill="#006271"></path><rect id="Rect&#xE1;ngulo_65" data-name="Rect&#xE1;ngulo 65" width="0.463" height="4.103" transform="translate(96.326 66.085)" fill="#006271"></rect><path id="Trazado_749" data-name="Trazado 749" d="M847.888,565.867v-.012a2.07,2.07,0,0,1,2.075-2.121,2.1,2.1,0,0,1,1.6.65l-.316.34a1.783,1.783,0,0,0-1.29-.563,1.608,1.608,0,0,0-1.588,1.682v.012a1.615,1.615,0,0,0,1.588,1.694,1.782,1.782,0,0,0,1.325-.592l.3.3a2.138,2.138,0,0,1-1.641.721,2.047,2.047,0,0,1-2.057-2.11" transform="translate(-748.598 -497.719)" fill="#006271"></path><path id="Trazado_750" data-name="Trazado 750" d="M896.652,565.867v-.012a2.093,2.093,0,1,1,4.185-.012v.012a2.093,2.093,0,1,1-4.185.012m3.7,0v-.012a1.631,1.631,0,0,0-1.618-1.694,1.612,1.612,0,0,0-1.606,1.682v.012a1.631,1.631,0,0,0,1.618,1.694,1.612,1.612,0,0,0,1.606-1.682" transform="translate(-791.651 -497.719)" fill="#006271"></path><path id="Trazado_751" data-name="Trazado 751" d="M950.054,564.082h.434l1.869,4.132h-.5l-.481-1.084h-2.233l-.486,1.084h-.475Zm1.143,2.632-.932-2.092-.938,2.092Z" transform="translate(-837.149 -498.026)" fill="#006271"></path><path id="Trazado_752" data-name="Trazado 752" d="M1003.216,564.333h.434l2.585,3.288v-3.288h.451v4.1h-.369l-2.65-3.364v3.364h-.451Z" transform="translate(-885.736 -498.248)" fill="#006271"></path><path id="Trazado_753" data-name="Trazado 753" d="M1054.086,555.422h.434l1.869,4.132h-.5l-.481-1.084h-2.233l-.486,1.084h-.475Zm1.143,2.632-.932-2.092-.938,2.092Zm-.528-3.78.463.211-.674.545h-.375Z" transform="translate(-928.998 -489.366)" fill="#006271"></path><path id="Trazado_754" data-name="Trazado 754" d="M1107.249,564.333h.463v3.675h2.309v.428h-2.772Z" transform="translate(-977.587 -498.248)" fill="#006271"></path><rect id="Rect&#xE1;ngulo_66" data-name="Rect&#xE1;ngulo 66" width="0.463" height="4.103" transform="translate(134.735 66.085)" fill="#006271"></rect><path id="Trazado_755" data-name="Trazado 755" d="M1174.967,567.4l.287-.34a1.929,1.929,0,0,0,1.406.58c.557,0,.914-.293.914-.7v-.012c0-.381-.205-.592-1.067-.78-.943-.205-1.377-.51-1.377-1.184v-.012a1.215,1.215,0,0,1,1.348-1.119,2.142,2.142,0,0,1,1.442.5l-.27.357a1.8,1.8,0,0,0-1.184-.445c-.539,0-.873.287-.873.662v.012c0,.387.205.61,1.113.8.914.2,1.337.533,1.337,1.16v.012c0,.7-.587,1.161-1.4,1.161a2.366,2.366,0,0,1-1.676-.657" transform="translate(-1037.375 -497.807)" fill="#006271"></path><rect id="Rect&#xE1;ngulo_67" data-name="Rect&#xE1;ngulo 67" width="0.463" height="4.103" transform="translate(143.139 66.085)" fill="#006271"></rect><path id="Trazado_756" data-name="Trazado 756" d="M1246.74,567.4l.287-.34a1.93,1.93,0,0,0,1.406.58c.557,0,.914-.293.914-.7v-.012c0-.381-.205-.592-1.067-.78-.943-.205-1.377-.51-1.377-1.184v-.012a1.215,1.215,0,0,1,1.348-1.119,2.142,2.142,0,0,1,1.442.5l-.27.357a1.8,1.8,0,0,0-1.184-.445c-.539,0-.873.287-.873.662v.012c0,.387.205.61,1.113.8.914.2,1.337.533,1.337,1.16v.012c0,.7-.586,1.161-1.4,1.161a2.366,2.366,0,0,1-1.676-.657" transform="translate(-1100.743 -497.807)" fill="#006271"></path><rect id="Rect&#xE1;ngulo_68" data-name="Rect&#xE1;ngulo 68" width="0.539" height="0.615" transform="translate(154.576 68.119)" fill="#006271"></rect><path id="Trazado_757" data-name="Trazado 757" d="M1372.113,564.761h-1.383v-.428h3.229v.428h-1.383v3.675h-.463Z" transform="translate(-1210.214 -498.248)" fill="#006271"></path><path id="Trazado_758" data-name="Trazado 758" d="M1417.823,564.333h1.764a1.606,1.606,0,0,1,1.166.41,1.108,1.108,0,0,1,.317.809v.012a1.2,1.2,0,0,1-1.114,1.2l1.26,1.676h-.569l-1.19-1.594h-1.172v1.594h-.463Zm1.723,2.092c.609,0,1.055-.316,1.055-.844v-.012c0-.51-.387-.809-1.049-.809h-1.266v1.664Z" transform="translate(-1251.792 -498.248)" fill="#006271"></path><path id="Trazado_759" data-name="Trazado 759" d="M1466.693,564.082h.433l1.87,4.132h-.5l-.481-1.084h-2.233l-.486,1.084h-.475Zm1.143,2.632-.932-2.092-.938,2.092Z" transform="translate(-1293.288 -498.026)" fill="#006271"></path><path id="Trazado_760" data-name="Trazado 760" d="M1519.856,564.333h1.747a1.507,1.507,0,0,1,1.072.363.916.916,0,0,1,.264.656v.012a.99.99,0,0,1-.651.949,1.034,1.034,0,0,1,.879.991v.012c0,.7-.592,1.119-1.489,1.119h-1.823Zm2.614,1.084c0-.4-.322-.668-.908-.668h-1.248v1.412h1.213c.563,0,.943-.246.943-.733Zm.229,1.858c0-.445-.369-.7-1.09-.7h-1.3v1.448h1.377c.627,0,1.008-.27,1.008-.732Z" transform="translate(-1341.876 -498.248)" fill="#006271"></path><path id="Trazado_761" data-name="Trazado 761" d="M1566.871,564.082h.433l1.87,4.132h-.5l-.48-1.084h-2.233l-.486,1.084H1565Zm1.143,2.632-.932-2.092-.938,2.092Z" transform="translate(-1381.735 -498.026)" fill="#006271"></path><path id="Trazado_762" data-name="Trazado 762" d="M1617.23,567.767l.334-.287a1.055,1.055,0,0,0,.938.586c.463,0,.8-.334.8-.985v-2.749h.469v2.743a1.471,1.471,0,0,1-.375,1.078,1.234,1.234,0,0,1-.9.34,1.4,1.4,0,0,1-1.266-.727" transform="translate(-1427.848 -498.247)" fill="#006271"></path><path id="Trazado_763" data-name="Trazado 763" d="M1659.637,565.867v-.012a2.092,2.092,0,1,1,4.185-.012v.012a2.092,2.092,0,1,1-4.185.012m3.7,0v-.012a1.631,1.631,0,0,0-1.618-1.694,1.612,1.612,0,0,0-1.606,1.682v.012a1.631,1.631,0,0,0,1.618,1.694,1.611,1.611,0,0,0,1.606-1.682" transform="translate(-1465.288 -497.719)" fill="#006271"></path><rect id="Rect&#xE1;ngulo_69" data-name="Rect&#xE1;ngulo 69" width="0.539" height="0.615" transform="translate(204.071 68.119)" fill="#006271"></rect><path id="Trazado_764" data-name="Trazado 764" d="M1794.544,565.867v-.012a2.071,2.071,0,0,1,2.075-2.121,2.1,2.1,0,0,1,1.6.65l-.316.34a1.782,1.782,0,0,0-1.289-.563,1.609,1.609,0,0,0-1.588,1.682v.012a1.615,1.615,0,0,0,1.588,1.694,1.781,1.781,0,0,0,1.325-.592l.3.3a2.137,2.137,0,0,1-1.641.721,2.047,2.047,0,0,1-2.057-2.11" transform="translate(-1584.398 -497.719)" fill="#006271"></path><path id="Trazado_765" data-name="Trazado 765" d="M1845.219,566.718v-2.385h.463v2.356c0,.891.463,1.383,1.254,1.383.756,0,1.236-.457,1.236-1.354v-2.385h.464v2.35a1.711,1.711,0,1,1-3.417.035" transform="translate(-1629.138 -498.248)" fill="#006271"></path><path id="Trazado_766" data-name="Trazado 766" d="M1896.979,564.333h.463v3.675h2.309v.428h-2.772Z" transform="translate(-1674.837 -498.248)" fill="#006271"></path><path id="Trazado_767" data-name="Trazado 767" d="M1934.216,564.761h-1.383v-.428h3.229v.428h-1.383v3.675h-.463Z" transform="translate(-1706.493 -498.248)" fill="#006271"></path><path id="Trazado_768" data-name="Trazado 768" d="M1979.654,566.718v-2.385h.463v2.356c0,.891.463,1.383,1.254,1.383.756,0,1.236-.457,1.236-1.354v-2.385h.463v2.35a1.711,1.711,0,1,1-3.417.035" transform="translate(-1747.831 -498.248)" fill="#006271"></path><path id="Trazado_769" data-name="Trazado 769" d="M2031.413,564.333h1.764a1.606,1.606,0,0,1,1.166.41,1.109,1.109,0,0,1,.317.809v.012a1.2,1.2,0,0,1-1.114,1.2l1.26,1.676h-.569l-1.19-1.594h-1.172v1.594h-.463Zm1.723,2.092c.609,0,1.055-.316,1.055-.844v-.012c0-.51-.387-.809-1.049-.809h-1.266v1.664Z" transform="translate(-1793.529 -498.248)" fill="#006271"></path><path id="Trazado_770" data-name="Trazado 770" d="M2080.279,564.082h.433l1.87,4.132h-.5l-.48-1.084h-2.233l-.486,1.084h-.475Zm1.143,2.632-.932-2.092-.938,2.092Z" transform="translate(-1835.021 -498.026)" fill="#006271"></path></svg>